HIERARCHY
ROOT root
{
	OFFSET	0	13.1	24.9
	CHANNELS 6  Xposition Yposition Zposition Xrotation Yrotation Zrotation
	JOINT spine_1
	{
		OFFSET	0	9.99999	0
		CHANNELS 3  Xrotation Yrotation Zrotation
		JOINT spine_2
		{
			OFFSET	0	112	-10
			CHANNELS 3  Xrotation Yrotation Zrotation
			JOINT spine_3
			{
				OFFSET	0	206.5	19.3
				CHANNELS 3  Xrotation Yrotation Zrotation
				JOINT spine_4
				{
					OFFSET	0	110.4	14.6
					CHANNELS 3  Xrotation Yrotation Zrotation
					JOINT neck_1
					{
						OFFSET	0	71.8	-50.3
						CHANNELS 3  Xrotation Yrotation Zrotation
						JOINT neck_2
						{
							OFFSET	0	86.2	-25.8
							CHANNELS 3  Xrotation Yrotation Zrotation
							JOINT head_ee
							{
								OFFSET	0	179.8	-8.7
								CHANNELS 3  Xrotation Yrotation Zrotation
								End Site
								{
									OFFSET	1	0	0
								}
							}
						}
					}
					JOINT left_clavicle
					{
						OFFSET	-43.2	22.4	-70.8
						CHANNELS 3  Xrotation Yrotation Zrotation
						JOINT left_shoulder
						{
							OFFSET	-93.9	-5.79999	48.7
							CHANNELS 3  Xrotation Yrotation Zrotation
							JOINT left_elbow
							{
								OFFSET	-291.4	-30.8	15.2
								CHANNELS 3  Xrotation Yrotation Zrotation
								JOINT left_lowarm_twist
								{
									OFFSET	-110.7	-3.89999	13.6
									CHANNELS 3  Xrotation Yrotation Zrotation
									JOINT left_hand
									{
										OFFSET	-110.7	-3.89999	13.6
										CHANNELS 3  Xrotation Yrotation Zrotation
										JOINT left_ee
										{
											OFFSET	-80.8	-5.10001	12.1
											CHANNELS 3  Xrotation Yrotation Zrotation
											End Site
											{
												OFFSET	1	0	0
											}
										}
									}
								}
							}
						}
					}
					JOINT right_clavicle
					{
						OFFSET	43.2	22.4	-70.8
						CHANNELS 3  Xrotation Yrotation Zrotation
						JOINT right_shoulder
						{
							OFFSET	93.9	-5.79999	48.7
							CHANNELS 3  Xrotation Yrotation Zrotation
							JOINT right_elbow
							{
								OFFSET	291.4	-30.8	15.2
								CHANNELS 3  Xrotation Yrotation Zrotation
								JOINT right_lowarm_twist
								{
									OFFSET	110.7	-3.89999	13.6
									CHANNELS 3  Xrotation Yrotation Zrotation
									JOINT right_hand
									{
										OFFSET	110.7	-3.89999	13.6
										CHANNELS 3  Xrotation Yrotation Zrotation
										JOINT right_ee
										{
											OFFSET	80.8	-5.10001	12.1
											CHANNELS 3  Xrotation Yrotation Zrotation
											End Site
											{
												OFFSET	1	0	0
											}
										}
									}
								}
							}
						}
					}
				}
			}
		}
	}
	JOINT left_hip
	{
		OFFSET	-82.8	-127.5	0.300001
		CHANNELS 3  Xrotation Yrotation Zrotation
		JOINT left_knee
		{
			OFFSET	-28.2	-396.7	2.2
			CHANNELS 3  Xrotation Yrotation Zrotation
			JOINT left_ankle
			{
				OFFSET	-11.7	-411.3	35.4
				CHANNELS 3  Xrotation Yrotation Zrotation
				JOINT left_toes
				{
					OFFSET	0	-60	-88.6
					CHANNELS 3  Xrotation Yrotation Zrotation
					JOINT left_foot_ee
					{
						OFFSET	-22.5	-16.5	-42.2
						CHANNELS 3  Xrotation Yrotation Zrotation
						End Site
						{
							OFFSET	1	0	0
						}
					}
				}
			}
		}
	}
	JOINT right_hip
	{
		OFFSET	82.8	-127.5	0.300001
		CHANNELS 3  Xrotation Yrotation Zrotation
		JOINT right_knee
		{
			OFFSET	28.2	-396.7	2.2
			CHANNELS 3  Xrotation Yrotation Zrotation
			JOINT right_ankle
			{
				OFFSET	11.7	-411.3	35.4
				CHANNELS 3  Xrotation Yrotation Zrotation
				JOINT right_toes
				{
					OFFSET	0	-60	-88.6
					CHANNELS 3  Xrotation Yrotation Zrotation
					JOINT right_foot_ee
					{
						OFFSET	22.5	-16.5	-42.2
						CHANNELS 3  Xrotation Yrotation Zrotation
						End Site
						{
							OFFSET	1	0	0
						}
					}
				}
			}
		}
	}
}
MOTION
Frames: 13
Frame Time: 0.02
1372.05 701.618 -1475.22 -3.55251852022 26.6890675449 4.15563018748 -2.49097 -0.104182 -1.43607 -2.48982 -0.0125993 -1.43979 -2.48827 0.351314 -1.39634 -2.49097 0.126403 -1.43429 -4.98607 17.2104 9.70357 -4.65133 24.4498 12.7592 -0.0 0.0 -0.0 10.2982 5.21276 19.9061 -11.5116 -29.3559 42.1975 1.83647 -42.2897 0.710338 -3.62896 -0.141914 0.441541 -0.847039 -7.35405 -8.87378 -0.0 0.0 -0.0 11.4818 11.3782 -23.1033 -35.2699 18.6857 -50.5259 0.332171 9.34436 -0.0271472 -41.0838 3.06716 -4.13741 -4.48256 1.56394 32.45 0.0 0.0 0.0 -17.4577 21.2428 1.92363 -6.19655 0.205083 0.928413 16.7447 -13.2572 -2.4781 28.8998 -0.0 -0.0 -0.0 0.0 -0.0 28.4817 -9.79217 -3.83564 3.94316 0.182347 0.577413 29.6548 -18.417 3.94013 32.7072 -0.0 -0.0 0.0 0.0 0.0 
1365.67268033 701.58 -1497.83553426 -3.40368776839 28.5248968343 3.8181936903 -2.44736 -0.147489 -1.2828 -2.44645 -0.065569 -1.28958 -2.44394 0.261134 -1.26457 -2.44617 0.0581582 -1.28994 -4.31317 17.2859 9.54992 -3.95146 24.4949 12.5105 -0.0 0.0 -0.0 10.2502 4.49526 19.871 -12.6016 -27.8758 42.2741 1.79819 -41.6897 0.684727 -3.61978 -0.14152 0.440436 -1.14951 -7.91379 -11.1903 -0.0 0.0 -0.0 11.8689 11.7558 -23.9727 -34.8497 19.2748 -51.0022 0.286215 8.06994 -0.0201898 -41.7354 3.13759 -4.1825 -4.46469 2.32732 32.7369 0.0 0.0 0.0 -17.3965 21.1476 1.04097 -8.09498 0.247685 1.21661 17.0497 -14.8175 -2.54653 29.0041 -0.0 -0.0 -0.0 0.0 -0.0 27.3034 -9.60396 -3.40573 3.8853 0.179385 0.569034 30.7975 -14.029 4.01132 32.9726 -0.0 -0.0 0.0 0.0 0.0 
1365.87357536 701.58 -1497.89122349 -3.38749554172 28.0174568958 3.78400762246 -2.44736 -0.147489 -1.2828 -2.44645 -0.065569 -1.28958 -2.44394 0.261134 -1.26457 -2.44617 0.0581582 -1.28994 -4.31317 17.2859 9.54992 -3.95146 24.4949 12.5105 -0.0 0.0 -0.0 10.2502 4.49526 19.871 -12.6016 -27.8758 42.2741 1.79819 -41.6897 0.684727 -3.61978 -0.14152 0.440436 -1.14951 -7.91379 -11.1903 -0.0 0.0 -0.0 11.8689 11.7558 -23.9727 -34.8497 19.2748 -51.0022 0.286215 8.06994 -0.0201898 -41.7354 3.13759 -4.1825 -4.46469 2.32732 32.7369 0.0 0.0 0.0 -17.3965 21.1476 1.04097 -8.09498 0.247685 1.21661 17.0497 -14.8175 -2.54653 29.0041 -0.0 -0.0 -0.0 0.0 -0.0 27.3034 -9.60396 -3.40573 3.8853 0.179385 0.569034 30.7975 -14.029 4.01132 32.9726 -0.0 -0.0 0.0 0.0 0.0 
1359.71858747 704.467 -1514.02330509 -2.95320776002 28.1444036119 4.36946053952 -2.50099 -0.0623196 -1.52089 -2.49971 0.0345735 -1.52177 -2.49931 0.417962 -1.46367 -2.50225 0.181584 -1.5113 -3.66472 17.3588 9.34435 -3.27887 24.5832 12.2135 -0.0 0.0 -0.0 10.0013 5.13363 19.3253 -15.1491 -29.0806 42.4305 1.79319 -41.6106 0.681406 -3.68121 -0.144161 0.447832 -0.813627 -7.95154 -8.90396 -0.0 0.0 -0.0 11.7366 12.9741 -23.6537 -33.6821 20.2401 -50.8624 0.299955 8.45186 -0.0221639 -41.6889 3.13255 -4.17931 -4.39923 2.462 32.2892 0.0 0.0 0.0 -17.3863 21.125 -0.433934 -7.99173 0.245614 1.20091 16.8725 -13.1909 -2.49441 29.0619 -0.0 -0.0 -0.0 0.0 -0.0 27.9729 -9.85763 -3.26431 -1.52699 -0.0598552 -0.226687 31.7848 -14.8187 4.12495 33.3538 -0.0 -0.0 0.0 0.0 0.0 
1340.82120537 707.639 -1542.34928207 -2.34975089732 28.701338122 3.63164124295 -2.47589 -0.0916531 -1.24414 -2.47503 -0.0123057 -1.24745 -2.47384 0.302718 -1.21023 -2.47586 0.1078 -1.24285 -3.75012 16.5593 8.47893 -3.41778 23.8048 11.2308 -0.0 0.0 -0.0 10.1877 5.50083 19.6624 -16.2946 -26.2624 43.7177 1.68706 -39.8828 0.612124 -4.00925 -0.1584 0.487279 -1.04731 -8.26812 -10.6418 -0.0 0.0 -0.0 11.8893 13.0385 -23.9988 -33.0922 20.6754 -50.566 0.31077 8.75196 -0.0237815 -41.8281 3.14764 -4.18884 -4.40258 2.572 32.3769 0.0 0.0 0.0 -17.3706 19.4335 -0.908414 -11.4265 0.299283 1.72514 17.9491 -14.1708 -2.65706 29.7496 -0.0 -0.0 -0.0 0.0 -0.0 25.323 -10.0497 -3.11673 -2.6119 -0.098695 -0.388655 32.7098 -13.7704 4.21079 33.3485 -0.0 -0.0 0.0 0.0 0.0 
1320.31978966 710.065 -1570.1085792 -0.161406987133 29.5033462473 2.49207009807 -3.00509 -0.0686169 -1.08577 -3.00444 0.000608067 -1.08793 -3.00368 0.284696 -1.05002 -3.0052 0.115302 -1.08181 -3.20561 16.2562 7.72061 -2.87801 23.6786 10.3315 -0.0 0.0 -0.0 10.155 5.73519 19.5777 -18.2318 -25.7454 44.5418 1.6413 -39.1098 0.583019 -4.46195 -0.178422 0.541582 -0.991313 -8.71898 -10.4526 -0.0 0.0 -0.0 11.6498 13.6808 -23.4403 -32.5467 21.1433 -50.9824 0.365424 10.2608 -0.0328087 -41.8689 3.15208 -4.19163 -4.33408 2.64299 31.8714 0.0 0.0 0.0 -17.2044 18.8054 -1.39197 -15.081 0.321788 2.28532 19.4148 -13.4882 -2.83989 30.7832 -0.0 -0.0 -0.0 0.0 -0.0 22.6852 -10.0275 -3.12171 -7.01478 -0.224616 -1.05246 34.1441 -15.6447 4.3803 33.4655 -0.0 -0.0 0.0 0.0 0.0 
1297.77011483 714.808 -1606.90515467 0.562464813473 30.2153042172 2.07876642873 -3.09742 -0.0945623 -1.09007 -3.09676 -0.0250111 -1.09388 -3.09546 0.263217 -1.06203 -3.09702 0.0921954 -1.09027 -1.67169 15.0213 4.74457 -1.35088 23.3698 6.85336 -0.0 0.0 -0.0 10.3794 6.94571 19.904 -21.2216 -24.6899 46.3507 1.35135 -33.7973 0.410554 -4.81829 -0.194484 0.584217 -0.910145 -8.4003 -9.75823 -0.0 0.0 -0.0 11.8637 15.0381 -23.8852 -29.8576 23.2742 -49.7651 0.370268 10.3939 -0.0336771 -41.4934 3.11137 -4.16584 -4.2552 2.68455 31.2707 0.0 0.0 0.0 -15.9167 18.0039 -2.09755 -21.4425 0.275707 3.2598 20.894 -12.9436 -3.02222 31.9339 -0.0 -0.0 -0.0 0.0 -0.0 19.7844 -9.94446 -3.19331 -9.28773 -0.269556 -1.39833 32.4812 -12.2946 4.17355 33.4649 -0.0 -0.0 0.0 0.0 0.0 
1277.86056691 718.14 -1630.20246818 1.88068995105 27.8032894916 2.20373282511 -3.22211 -0.0293802 -0.985418 -3.22157 0.033381 -0.98529 -3.22151 0.293108 -0.941279 -3.22272 0.140779 -0.975753 -0.101309 14.1766 3.05366 0.265612 22.8528 4.73083 -0.0 0.0 -0.0 10.4037 7.70192 19.874 -22.3317 -22.7729 48.3419 1.05203 -27.5253 0.257683 -5.40857 -0.221674 0.654622 -0.999913 -7.30639 -9.89895 -0.0 0.0 -0.0 11.8524 16.0103 -23.8216 -29.4568 26.3658 -49.1576 0.428118 11.9739 -0.0448988 -41.7969 3.14426 -4.18671 -4.29699 1.76421 31.0934 0.0 0.0 0.0 -8.93733 15.5297 -5.84466 -35.2446 -0.192272 5.32119 20.7421 -10.7622 -2.9639 34.046 -0.0 -0.0 -0.0 0.0 -0.0 17.4233 -9.00575 -4.24756 -12.0526 -0.305674 -1.821 32.0279 -10.3592 4.11325 33.9838 -0.0 -0.0 0.0 0.0 0.0 
1282.76761819 718.14 -1633.08028965 1.85099322309 26.0069797022 2.26935076328 -3.22211 -0.0293802 -0.985418 -3.22157 0.033381 -0.98529 -3.22151 0.293108 -0.941279 -3.22272 0.140779 -0.975753 -0.101309 14.1766 3.05366 0.265612 22.8528 4.73083 -0.0 0.0 -0.0 10.4037 7.70192 19.874 -22.3317 -22.7729 48.3419 1.05203 -27.5253 0.257683 -5.40857 -0.221674 0.654622 -0.999913 -7.30639 -9.89895 -0.0 0.0 -0.0 11.8524 16.0103 -23.8216 -29.4568 26.3658 -49.1576 0.428118 11.9739 -0.0448988 -41.7969 3.14426 -4.18671 -4.29699 1.76421 31.0934 0.0 0.0 0.0 -8.93733 15.5297 -5.84466 -35.2446 -0.192272 5.32119 20.7421 -10.7622 -2.9639 34.046 -0.0 -0.0 -0.0 0.0 -0.0 17.4233 -9.00575 -4.24756 -12.0526 -0.305674 -1.821 32.0279 -10.3592 4.11325 33.9838 -0.0 -0.0 0.0 0.0 0.0 
1276.0863267 723.977 -1654.83681869 2.64344177421 23.9277818267 3.20760865616 -3.38294 0.138087 -0.923416 -3.38249 0.196564 -0.912759 -3.38524 0.433635 -0.826884 -3.38607 0.297608 -0.884986 -0.102213 13.8669 4.08927 0.225158 21.4507 5.81709 -0.0 0.0 -0.0 10.0846 10.4268 18.9679 -23.1675 -21.424 49.2803 1.05679 -27.6316 0.25989 -5.88624 -0.244208 0.711391 -1.0185 -6.87068 -9.83666 -0.0 0.0 -0.0 12.2386 17.5315 -24.6352 -28.7624 29.3951 -47.8097 0.504696 14.0371 -0.062135 -42.3631 3.20592 -4.22517 -4.29112 1.05722 30.6539 0.0 0.0 0.0 -3.99319 10.9636 -8.13031 -43.2426 -0.685842 6.44615 18.3085 -6.66215 -2.59493 35.0696 -0.0 -0.0 -0.0 0.0 -0.0 15.8375 -8.83179 -6.10402 -13.3376 -0.315509 -2.01791 32.0261 -11.2448 4.11847 34.3456 -0.0 -0.0 0.0 0.0 0.0 
1275.9267241 725.78 -1675.50508915 2.68599006489 23.5362709218 3.00862724158 -3.27821 0.131816 -0.900656 -3.27777 0.188857 -0.890444 -3.28035 0.418757 -0.808213 -3.28115 0.285865 -0.8642 -0.12958 14.1877 4.54865 0.207756 21.6582 6.34375 -0.0 0.0 -0.0 9.49793 10.3223 17.8913 -24.3002 -21.0455 50.624 1.03283 -27.0951 0.248874 -5.66782 -0.233845 0.685456 -1.0461 -6.89649 -10.037 -0.0 0.0 -0.0 12.4037 17.6897 -25.0069 -27.5441 30.1493 -47.7115 0.524675 14.5695 -0.067071 -42.4532 3.21575 -4.23123 -4.33634 1.4514 31.2286 0.0 0.0 0.0 -2.99225 8.06809 -8.17053 -44.9547 -0.811684 6.67751 17.824 -8.02913 -2.54786 35.0801 -0.0 -0.0 -0.0 0.0 -0.0 14.6803 -8.84604 -5.91412 -13.9388 -0.318593 -2.1101 31.586 -11.2819 4.07266 34.3944 -0.0 -0.0 0.0 0.0 0.0 
1284.03078567 725.78 -1679.19651583 2.64200660455 21.2418914416 3.12407828821 -3.27821 0.131816 -0.900656 -3.27777 0.188857 -0.890444 -3.28035 0.418757 -0.808213 -3.28115 0.285865 -0.8642 -0.12958 14.1877 4.54865 0.207756 21.6582 6.34375 -0.0 0.0 -0.0 9.49793 10.3223 17.8913 -24.3002 -21.0455 50.624 1.03283 -27.0951 0.248874 -5.66782 -0.233845 0.685456 -1.0461 -6.89649 -10.037 -0.0 0.0 -0.0 12.4037 17.6897 -25.0069 -27.5441 30.1493 -47.7115 0.524675 14.5695 -0.067071 -42.4532 3.21575 -4.23123 -4.33634 1.4514 31.2286 0.0 0.0 0.0 -2.99225 8.06809 -8.17053 -44.9547 -0.811684 6.67751 17.824 -8.02913 -2.54786 35.0801 -0.0 -0.0 -0.0 0.0 -0.0 14.6803 -8.84604 -5.91412 -13.9388 -0.318593 -2.1101 31.586 -11.2819 4.07266 34.3944 -0.0 -0.0 0.0 0.0 0.0 
1262.08330219 728.351 -1710.57047711 2.35897219477 23.6356519301 3.02258320766 -2.85934 0.0938821 -0.543969 -2.85919 0.128306 -0.536893 -2.86028 0.26284 -0.48542 -2.86056 0.182879 -0.520838 -0.59615 14.0362 4.36773 -0.280086 21.6392 6.19616 -0.0 0.0 -0.0 9.12063 11.9964 17.0355 -26.0195 -20.2145 51.6844 0.883525 -23.6374 0.184882 -4.66466 -0.187526 0.565849 -1.05282 -6.42947 -9.87932 -0.0 0.0 -0.0 12.8387 19.552 -25.9016 -24.8473 31.9442 -47.253 0.601073 16.5812 -0.0875874 -42.1933 3.18738 -4.21369 -4.35224 0.893383 31.0405 0.0 0.0 0.0 -0.218176 7.12669 -9.68623 -44.7151 -0.793654 6.64536 18.9244 -8.62945 -2.69867 35.3883 -0.0 -0.0 -0.0 0.0 -0.0 12.3264 -9.5909 -5.44082 -14.7828 -0.321291 -2.23956 30.8281 -7.72917 3.97765 34.2899 -0.0 -0.0 0.0 0.0 0.0 
